HIERARCHY
ROOT Hips
{
	OFFSET 0.000000 0.000000 0.000000 
	CHANNELS 6 Xposition Yposition Zposition Zrotation Yrotation Xrotation
	JOINT LeftUpLeg
	{
		OFFSET 1.363060 -1.794630 0.839290 
		CHANNELS 3 Zrotation Yrotation Xrotation
		JOINT LeftLeg
		{
			OFFSET 2.448110 -6.726130 0.000000 
			CHANNELS 3 Zrotation Yrotation Xrotation
			JOINT LeftFoot
			{
				OFFSET 2.562200 -7.039590 0.000000 
				CHANNELS 3 Zrotation Yrotation Xrotation
				JOINT LeftToeBase
				{
					OFFSET 0.157640 -0.433110 2.322550 
					CHANNELS 3 Zrotation Yrotation Xrotation
					End Site
					{
						OFFSET 0.000000 0.000000 0.000000 
					}
				}
			}
		}
	}
	JOINT RightUpLeg
	{
		OFFSET -1.305520 -1.794630 0.839290 
		CHANNELS 3 Zrotation Yrotation Xrotation
		JOINT RightLeg
		{
			OFFSET -2.542530 -6.985550 0.000000 
			CHANNELS 3 Zrotation Yrotation Xrotation
			JOINT RightFoot
			{
				OFFSET -2.568260 -7.056230 0.000000 
				CHANNELS 3 Zrotation Yrotation Xrotation
				JOINT RightToeBase
				{
					OFFSET -0.164730 -0.452590 2.363150 
					CHANNELS 3 Zrotation Yrotation Xrotation
					End Site
					{
						OFFSET 0.000000 0.000000 0.000000 
					}
				}
			}
		}
	}
	JOINT Spine
	{
		OFFSET 0.028270 2.035590 -0.193380 
		CHANNELS 3 Zrotation Yrotation Xrotation
		JOINT Spine1
		{
			OFFSET 0.056720 2.048850 -0.042750 
			CHANNELS 3 Zrotation Yrotation Xrotation
			JOINT Neck1
			{
				OFFSET -0.054170 1.746240 0.172020 
				CHANNELS 3 Zrotation Yrotation Xrotation
				JOINT Head
				{
					OFFSET 0.104070 1.761360 -0.123970 
					CHANNELS 3 Zrotation Yrotation Xrotation
					End Site
					{
						OFFSET 0.000000 0.000000 0.000000 
					}
				}
			}
			JOINT LeftArm
			{
				OFFSET 3.362410 1.200890 -0.311210 
				CHANNELS 3 Zrotation Yrotation Xrotation
				JOINT LeftForeArm
				{
					OFFSET 4.983000 -0.000000 -0.000000 
					CHANNELS 3 Zrotation Yrotation Xrotation
					JOINT LeftHand
					{
						OFFSET 3.483560 -0.000000 -0.000000 
						CHANNELS 3 Zrotation Yrotation Xrotation
						JOINT LeftHandIndex1
						{
							OFFSET 0.715260 -0.000000 -0.000000 
							CHANNELS 3 Zrotation Yrotation Xrotation
							End Site
							{
								OFFSET 0.000000 0.000000 0.000000 
							}
						}
					}
				}
			}
			JOINT RightArm
			{
				OFFSET -3.136600 1.374050 -0.404650 
				CHANNELS 3 Zrotation Yrotation Xrotation
				JOINT RightForeArm
				{
					OFFSET -5.241900 -0.000000 -0.000000 
					CHANNELS 3 Zrotation Yrotation Xrotation
					JOINT RightHand
					{
						OFFSET -3.444170 -0.000000 -0.000000 
						CHANNELS 3 Zrotation Yrotation Xrotation
						JOINT RightHandIndex1
						{
							OFFSET -0.622530 -0.000000 -0.000000 
							CHANNELS 3 Zrotation Yrotation Xrotation
							End Site
							{
								OFFSET 0.000000 0.000000 0.000000 
							}
						}
					}
				}
			}
		}
	}
}
MOTION
Frames: 13
Frame Time: 0.041667
16.953654 18.374607 20.986005 175.722483 -1.260971 -152.802716 -49.334160 -22.885272 -15.431914 2.488658 4.992858 12.424824 -1.498973 -14.113422 -31.745967 2.183400 -9.238000 -26.542700 47.197642 18.333317 -13.211799 -3.136268 -3.673230 9.472093 -1.598452 7.733203 -34.951120 -3.445700 11.383800 -33.585600 1.151254 -0.082887 -6.414216 1.226406 -1.761167 20.382409 11.150706 -1.970507 5.783939 0.919200 -0.761600 2.183700 -108.319946 -3.872811 16.773493 15.799015 -16.019573 -2.080919 -0.537193 0.346227 5.373274 -7.125000 0.000000 0.000000 101.385466 -2.576700 4.092640 -18.252949 27.488699 -4.019210 0.024425 -0.313434 0.177114 7.125000 0.000000 0.000000 
16.955187 18.373585 20.990910 175.661152 -1.243586 -152.634921 -49.347706 -22.895993 -15.665442 2.488972 5.031039 12.498386 -1.580167 -14.267348 -31.690119 2.137600 -9.147000 -26.256100 47.069082 18.528234 -13.498774 -3.140490 -3.724730 9.550486 -1.577987 7.833771 -35.114803 -3.075300 10.816000 -31.661800 1.111335 -0.078880 -6.464968 1.282892 -1.773847 20.444503 11.160586 -1.855609 5.248029 0.923300 -0.746600 2.047000 -108.280091 -3.981343 16.985817 15.952463 -16.281401 -2.141645 -0.534173 0.343291 5.127314 -7.125000 0.000000 0.000000 101.410447 -2.591486 4.175065 -18.315515 27.577466 -4.050653 0.020287 -0.307313 0.176266 7.125000 0.000000 0.000000 
16.956617 18.372257 20.995508 175.586401 -1.207982 -152.481432 -49.389105 -22.942038 -15.855960 2.483260 5.055030 12.535894 -1.629474 -14.386775 -31.712788 2.232600 -9.334600 -26.847800 46.933445 18.587744 -13.768921 -3.151517 -3.757122 9.598503 -1.533537 8.014286 -35.241057 -2.724300 10.234800 -29.740600 1.067407 -0.092918 -6.514634 1.320608 -1.795387 20.464446 11.275185 -1.769511 5.077721 0.956400 -0.715800 2.018000 -108.238863 -4.054729 17.110149 16.118308 -16.561481 -2.206769 -0.528851 0.336510 4.931517 -7.125000 0.000000 0.000000 101.454068 -2.577640 4.117797 -18.302235 27.567061 -4.048444 0.020911 -0.310505 0.285404 7.125000 0.000000 0.000000 
16.959478 18.371542 20.997755 175.628759 -1.246403 -152.504367 -49.323591 -22.965360 -15.855417 2.485891 5.052101 12.526346 -1.622181 -14.366205 -31.716615 2.220600 -9.311300 -26.774000 47.021746 18.528594 -13.657614 -3.143381 -3.717395 9.475743 -1.552861 7.830989 -35.031676 -3.009700 10.710700 -31.310200 1.118625 -0.107762 -6.486970 1.325876 -1.798974 20.483822 11.464455 -1.623167 4.785049 1.028100 -0.664300 1.967500 -108.228414 -4.184856 17.243049 16.243110 -16.777338 -2.254843 -0.533964 0.321815 4.928448 -7.125000 0.000000 0.000000 101.458483 -2.554928 4.185001 -18.407114 27.700604 -4.090360 0.022253 -0.307358 0.213158 7.125000 0.000000 0.000000 
16.961215 18.372563 21.002558 175.667678 -1.344811 -152.554600 -49.263577 -22.947125 -15.857682 2.494270 5.058553 12.557542 -1.667619 -14.448091 -31.655560 2.273500 -9.414000 -27.099100 47.123382 18.464339 -13.512154 -3.136673 -3.666332 9.361172 -1.548787 7.862730 -34.982275 -2.829800 10.414300 -30.328900 1.135625 -0.151871 -6.492165 1.310395 -1.812311 20.439405 11.428575 -1.677106 4.885042 1.015400 -0.683700 1.986400 -108.196647 -4.260545 17.491972 16.377759 -16.993311 -2.307516 -0.543226 0.309740 4.821222 -7.125000 0.000000 0.000000 101.496649 -2.549027 4.321505 -18.496041 27.817635 -4.125606 0.022413 -0.303504 -0.174232 7.125000 0.000000 0.000000 
16.958763 18.373892 21.002047 175.697625 -1.317132 -152.641357 -49.278676 -22.889813 -15.739403 2.496023 5.041980 12.533529 -1.643612 -14.401579 -31.655704 2.261400 -9.390600 -27.024900 47.158830 18.417250 -13.417656 -3.139215 -3.651662 9.373783 -1.522073 8.040096 -35.047641 -2.675300 10.149800 -29.463200 1.102468 -0.152685 -6.487579 1.282012 -1.805090 20.408243 11.246630 -1.800008 5.164387 0.953700 -0.724500 2.038700 -108.149284 -4.246681 17.762605 16.567936 -17.297819 -2.386910 -0.539051 0.301626 4.443969 -7.125000 0.000000 0.000000 101.529248 -2.561199 4.452964 -18.562201 27.908768 -4.153406 0.022133 -0.300334 -0.348166 7.125000 0.000000 0.000000 
16.957537 18.374198 21.001945 175.729528 -1.258802 -152.681711 -49.272850 -22.864623 -15.685665 2.494375 5.033908 12.513233 -1.594953 -14.306521 -31.702497 2.246800 -9.362200 -26.935100 47.171433 18.403044 -13.398262 -3.140904 -3.650392 9.388746 -1.501304 8.127904 -35.051921 -2.677000 10.152800 -29.473000 1.155218 -0.127764 -6.502915 1.318074 -1.795117 20.400448 11.206540 -1.826062 5.201771 0.955300 -0.735900 2.029500 -108.181944 -4.270711 17.925963 16.746142 -17.593709 -2.462774 -0.533755 0.287084 4.116089 -7.125000 0.000000 0.000000 101.452958 -2.633315 4.506040 -18.538951 27.868602 -4.145306 0.025329 -0.308545 -0.506611 7.125000 0.000000 0.000000 
16.962032 18.373177 21.009914 175.769744 -1.313996 -152.656086 -49.180191 -22.819303 -15.812811 2.501607 5.056245 12.571158 -1.647808 -14.423107 -31.700010 2.323900 -9.510500 -27.405500 47.235927 18.435157 -13.423800 -3.130225 -3.646456 9.349086 -1.518059 8.060129 -35.051472 -2.633000 10.075900 -29.222800 1.256559 -0.154669 -6.554056 1.383761 -1.813043 20.355489 11.361933 -1.782627 5.113805 1.016400 -0.720900 1.993900 -108.238284 -4.368622 18.011416 16.862414 -17.789161 -2.510498 -0.539272 0.274634 3.999586 -7.125000 0.000000 0.000000 101.381013 -2.682540 4.653224 -18.690136 28.050693 -4.207169 0.024080 -0.298936 -0.648721 7.125000 0.000000 0.000000 
16.964893 18.372359 21.017782 175.802131 -1.377890 -152.658780 -49.101871 -22.796277 -15.888392 2.508728 5.069491 12.606463 -1.691292 -14.505659 -31.666249 2.371500 -9.600500 -27.692500 47.295930 18.458657 -13.412905 -3.120501 -3.640008 9.313565 -1.541045 7.979596 -35.053694 -2.571900 9.967500 -28.871600 1.269884 -0.199805 -6.565311 1.367248 -1.831461 20.313242 11.278534 -1.841428 5.346802 0.992100 -0.732800 2.041500 -108.209722 -4.456386 18.191746 16.956663 -17.935984 -2.548795 -0.546705 0.271439 3.937583 -7.125000 0.000000 0.000000 101.418342 -2.625596 4.510102 -18.622945 27.972353 -4.182492 0.027393 -0.309767 -0.508782 7.125000 0.000000 0.000000 
16.960806 18.372461 21.019212 175.834647 -1.297819 -152.711576 -49.103435 -22.849854 -15.776625 2.502828 5.043336 12.522473 -1.594709 -14.286923 -31.700457 2.327500 -9.517200 -27.427100 47.300041 18.400169 -13.408091 -3.125483 -3.643634 9.340993 -1.510062 8.053924 -34.990317 -2.600900 10.019000 -29.038300 1.245622 -0.173475 -6.524973 1.314497 -1.808920 20.340129 11.268057 -1.909375 5.527232 0.985000 -0.752800 2.075900 -108.180844 -4.531682 18.386847 17.070575 -18.117779 -2.596814 -0.552606 0.266958 3.842249 -7.125000 0.000000 0.000000 101.444223 -2.602158 4.695937 -18.753903 28.147868 -4.239830 0.024064 -0.300394 -0.563970 7.125000 0.000000 0.000000 
16.957639 18.373177 21.019314 175.893275 -1.188577 -152.766174 -49.081078 -22.917435 -15.662587 2.496125 5.023674 12.455106 -1.472991 -14.021948 -31.774330 2.251800 -9.372000 -26.966000 47.331013 18.343134 -13.410650 -3.128178 -3.651088 9.379132 -1.471668 8.153224 -34.925037 -2.659700 10.122600 -29.374600 1.309227 -0.122636 -6.451945 1.320174 -1.781475 20.443362 11.551870 -1.810790 5.281343 1.073400 -0.720800 2.018100 -108.201985 -4.668067 18.541660 17.169114 -18.290629 -2.641339 -0.557023 0.269255 3.770038 -7.125000 0.000000 0.000000 101.417980 -2.551006 4.620739 -18.717152 28.096123 -4.226109 0.027077 -0.307884 -0.569593 7.125000 0.000000 0.000000 
16.963565 18.370316 21.023095 175.927653 -1.166579 -152.622257 -48.968234 -22.862181 -15.882284 2.503798 5.043872 12.489475 -1.552369 -14.186496 -31.752124 2.268900 -9.405100 -27.071000 47.366277 18.570681 -13.607965 -3.115956 -3.686734 9.403879 -1.440652 8.180197 -34.894120 -2.586300 9.993200 -28.954700 1.265865 -0.134956 -6.549240 1.317990 -1.795212 20.405043 11.722660 -1.775505 5.379705 1.108100 -0.693300 2.041600 -108.079140 -4.658908 18.784661 17.291914 -18.480141 -2.695951 -0.554027 0.273393 3.555059 -7.125000 0.000000 0.000000 101.504076 -2.578003 4.698389 -18.822463 28.239521 -4.272824 0.025141 -0.300271 -0.513152 7.125000 0.000000 0.000000 
16.974498 18.361222 21.022584 175.936474 -0.776958 -152.352284 -48.918958 -22.419323 -16.208192 2.512793 4.997609 12.343138 -1.696709 -14.531295 -31.745635 2.402900 -9.659200 -27.879900 47.377831 18.789744 -13.877727 -3.120313 -3.616837 9.117614 -1.224075 8.607648 -34.448770 -2.563800 9.953000 -28.824700 1.181922 0.015741 -6.554178 1.470237 -1.782164 20.543070 11.529365 -1.859439 5.606296 1.043200 -0.717800 2.105600 -107.976503 -4.743543 19.036624 17.418631 -18.668148 -2.750358 -0.546567 0.264697 3.214583 -7.125000 0.000000 0.000000 101.544434 -2.504426 4.657096 -18.765256 28.177591 -4.254859 0.031636 -0.316242 -0.459699 7.125000 0.000000 0.000000 
